<svg width="28" height="28" viewBox="0 0 28 28" fill="none" xmlns="http://www.w3.org/2000/svg">
<path d="M24.2905 1.75H3.84344C2.72617 1.75 1.75 2.55391 1.75 3.65805V24.1505C1.75 25.2607 2.72617 26.25 3.84344 26.25H24.2845C25.4078 26.25 26.25 25.2541 26.25 24.1505V3.65805C26.2566 2.55391 25.4078 1.75 24.2905 1.75ZM9.34445 22.172H5.83461V11.2591H9.34445V22.172ZM7.71094 9.59984H7.68578C6.5625 9.59984 5.83516 8.76367 5.83516 7.71695C5.83516 6.65109 6.58164 5.83461 7.73008 5.83461C8.87852 5.83461 9.58125 6.64508 9.60641 7.71695C9.60586 8.76367 8.87852 9.59984 7.71094 9.59984ZM22.172 22.172H18.6621V16.205C18.6621 14.7755 18.1513 13.7988 16.8815 13.7988C15.9113 13.7988 15.3371 14.455 15.0817 15.0943C14.986 15.324 14.9603 15.6368 14.9603 15.9562V22.172H11.4505V11.2591H14.9603V12.7777C15.4711 12.0504 16.269 11.0037 18.1256 11.0037C20.4296 11.0037 22.1725 12.5223 22.1725 15.7965L22.172 22.172Z" fill="#453A3A"/>
</svg>
