<svg width="28" height="28" viewBox="0 0 28 28" fill="none" xmlns="http://www.w3.org/2000/svg">
<path d="M1.75 1.75V26.25H26.25V1.75H1.75ZM14.875 20.7812C14.875 23.1662 13.4662 24.3288 11.427 24.3288C9.58508 24.3288 8.51594 23.3751 7.97344 22.2239L9.84813 21.0891C10.2096 21.7306 10.4841 22.2731 11.2733 22.2731C11.9295 22.2731 12.4688 21.9773 12.4688 20.8261V13.125H14.875V20.7812ZM20.3082 24.2741C18.1705 24.2741 16.7891 23.3095 16.1148 21.9773L17.9922 20.8906C18.4844 21.6967 19.127 22.2337 20.2617 22.2337C21.2155 22.2337 21.7695 21.8116 21.7695 21.1537C21.7695 20.3645 21.1991 20.0851 20.1463 19.6224L19.571 19.3752C17.9096 18.6687 16.8082 17.7805 16.8082 15.9053C16.8082 14.1788 18.1234 12.9177 20.1791 12.9177C21.6431 12.9177 22.6948 13.3727 23.4522 14.7049L21.6562 15.8594C21.2614 15.1523 20.8359 14.875 20.1764 14.875C19.5021 14.875 19.0745 15.3027 19.0745 15.8594C19.0745 16.5501 19.5021 16.8295 20.4887 17.2572L21.064 17.5038C23.0213 18.3427 24.1232 19.1991 24.1232 21.122C24.1237 23.1946 22.4957 24.2741 20.3082 24.2741Z" fill="#453A3A"/>
</svg>
