<svg width="28" height="28" viewBox="0 0 28 28" fill="none" xmlns="http://www.w3.org/2000/svg">
<path d="M8.89602 3.79148C7.54345 3.79552 6.24744 4.33462 5.29103 5.29103C4.33462 6.24744 3.79552 7.54345 3.79148 8.89602V19.104C3.79552 20.4565 4.33462 21.7526 5.29103 22.709C6.24744 23.6654 7.54345 24.2045 8.89602 24.2085H19.104C20.4565 24.2045 21.7526 23.6654 22.709 22.709C23.6654 21.7526 24.2045 20.4565 24.2085 19.104V8.89602C24.2045 7.54345 23.6654 6.24744 22.709 5.29103C21.7526 4.33462 20.4565 3.79552 19.104 3.79148H8.89602V3.79148ZM8.89602 1.75H19.104C23.0344 1.75 26.25 4.96562 26.25 8.89602V19.104C26.25 23.0344 23.0344 26.25 19.104 26.25H8.89602C4.96563 26.25 1.75 23.0344 1.75 19.104V8.89602C1.75 4.96562 4.96563 1.75 8.89602 1.75V1.75Z" fill="#453A3A"/>
<path d="M7.36476 8.89603C7.66762 8.89603 7.96367 8.80622 8.21548 8.63797C8.46729 8.46971 8.66356 8.23056 8.77945 7.95076C8.89535 7.67096 8.92567 7.36308 8.86659 7.06605C8.80751 6.76901 8.66167 6.49617 8.44752 6.28202C8.23337 6.06787 7.96053 5.92203 7.6635 5.86295C7.36646 5.80387 7.05858 5.83419 6.77878 5.95009C6.49898 6.06598 6.25983 6.26225 6.09158 6.51406C5.92332 6.76587 5.83351 7.06192 5.83351 7.36478C5.83308 7.56599 5.87239 7.7653 5.94919 7.95127C6.02599 8.13725 6.13876 8.30622 6.28104 8.4485C6.42332 8.59078 6.59229 8.70355 6.77827 8.78035C6.96424 8.85715 7.16356 8.89646 7.36476 8.89603V8.89603ZM14 9.9165C13.1924 9.9165 12.4028 10.156 11.7313 10.6047C11.0598 11.0534 10.5364 11.6912 10.2273 12.4373C9.91825 13.1835 9.83738 14.0045 9.99495 14.7967C10.1525 15.5888 10.5414 16.3164 11.1125 16.8875C11.6836 17.4586 12.4112 17.8475 13.2033 18.0051C13.9955 18.1626 14.8165 18.0818 15.5627 17.7727C16.3089 17.4636 16.9466 16.9402 17.3953 16.2687C17.844 15.5972 18.0835 14.8077 18.0835 14C18.0824 12.9174 17.6518 11.8794 16.8862 11.1138C16.1206 10.3483 15.0827 9.91765 14 9.9165V9.9165ZM14 7.87501C15.2114 7.87501 16.3956 8.23424 17.4029 8.90726C18.4101 9.58028 19.1952 10.5369 19.6588 11.6561C20.1223 12.7753 20.2436 14.0068 20.0073 15.1949C19.771 16.3831 19.1876 17.4744 18.331 18.331C17.4744 19.1876 16.3831 19.771 15.1949 20.0073C14.0068 20.2437 12.7753 20.1224 11.6561 19.6588C10.5369 19.1952 9.58027 18.4101 8.90725 17.4029C8.23422 16.3956 7.875 15.2114 7.875 14C7.875 12.3756 8.52031 10.8176 9.66897 9.66898C10.8176 8.52032 12.3755 7.87501 14 7.87501V7.87501Z" fill="#453A3A"/>
</svg>
