<svg width="200" height="41" viewBox="0 0 200 41" fill="none" xmlns="http://www.w3.org/2000/svg">
<path d="M0 3C0 1.34315 1.34315 0 3 0H11C12.6569 0 14 1.34315 14 3V15C14 16.6569 12.6569 18 11 18H3C1.34315 18 0 16.6569 0 15V3Z" fill="#DB0E2D"/>
<path d="M11.2399 29.8C11.2399 32.0133 10.8399 33.84 10.0399 35.28C9.26656 36.72 8.22656 37.84 6.91989 38.64C5.63989 39.4667 4.10656 40.1733 2.31989 40.76L0.559893 36.12C1.73323 35.6667 2.61323 35.1467 3.19989 34.56C3.78656 33.9733 4.17323 33.2933 4.35989 32.52C4.57323 31.7467 4.67989 30.76 4.67989 29.56V6.28H11.2399V29.8Z" fill="#E3E3E3"/>
<path d="M25.3752 12.08C28.6285 12.08 31.1752 13.08 33.0152 15.08C34.8552 17.0533 35.7752 19.8267 35.7752 23.4C35.7752 25.6667 35.3485 27.6533 34.4952 29.36C33.6685 31.04 32.4685 32.3467 30.8952 33.28C29.3485 34.2133 27.5085 34.68 25.3752 34.68C22.1485 34.68 19.6019 33.6933 17.7352 31.72C15.8952 29.72 14.9752 26.9333 14.9752 23.36C14.9752 21.0933 15.3885 19.12 16.2152 17.44C17.0685 15.7333 18.2685 14.4133 19.8152 13.48C21.3885 12.5467 23.2419 12.08 25.3752 12.08ZM25.3752 16.72C24.0952 16.72 23.1352 17.2667 22.4952 18.36C21.8552 19.4267 21.5352 21.0933 21.5352 23.36C21.5352 25.68 21.8419 27.3733 22.4552 28.44C23.0952 29.5067 24.0685 30.04 25.3752 30.04C26.6552 30.04 27.6152 29.5067 28.2552 28.44C28.8952 27.3467 29.2152 25.6667 29.2152 23.4C29.2152 21.08 28.8952 19.3867 28.2552 18.32C27.6419 17.2533 26.6819 16.72 25.3752 16.72Z" fill="#E3E3E3"/>
<path d="M56.024 27.84C56.024 28.64 56.1306 29.2267 56.344 29.6C56.584 29.9733 56.9573 30.2533 57.464 30.44L56.144 34.56C54.8373 34.4533 53.7706 34.1733 52.944 33.72C52.1173 33.24 51.4773 32.4933 51.024 31.48C49.6373 33.6133 47.504 34.68 44.624 34.68C42.5173 34.68 40.8373 34.0667 39.584 32.84C38.3306 31.6133 37.704 30.0133 37.704 28.04C37.704 25.72 38.5573 23.9467 40.264 22.72C41.9706 21.4933 44.4373 20.88 47.664 20.88H49.824V19.96C49.824 18.7067 49.5573 17.8533 49.024 17.4C48.4906 16.92 47.5573 16.68 46.224 16.68C45.5306 16.68 44.6906 16.7867 43.704 17C42.7173 17.1867 41.704 17.4533 40.664 17.8L39.224 13.64C40.5573 13.1333 41.9173 12.7467 43.304 12.48C44.7173 12.2133 46.024 12.08 47.224 12.08C50.264 12.08 52.4906 12.7067 53.904 13.96C55.3173 15.2133 56.024 17.0933 56.024 19.6V27.84ZM46.464 30.16C47.904 30.16 49.024 29.48 49.824 28.12V24.36H48.264C46.824 24.36 45.744 24.6133 45.024 25.12C44.3306 25.6267 43.984 26.4133 43.984 27.48C43.984 28.3333 44.1973 29 44.624 29.48C45.0773 29.9333 45.6906 30.16 46.464 30.16ZM49.824 8.6C49.2373 8.6 48.7306 8.50667 48.304 8.32C47.8773 8.13333 47.4106 7.86666 46.904 7.52C46.2373 7.04 45.6906 6.8 45.264 6.8C44.8106 6.8 44.424 6.94667 44.104 7.24C43.8106 7.50667 43.4906 7.94667 43.144 8.56L39.984 7.04C40.5173 5.65333 41.224 4.52 42.104 3.64C43.0106 2.76 44.024 2.32 45.144 2.32C45.7573 2.32 46.2773 2.42666 46.704 2.64C47.1573 2.82667 47.6506 3.09333 48.184 3.44C48.5573 3.68 48.8506 3.85333 49.064 3.96C49.304 4.06667 49.544 4.12 49.784 4.12C50.2106 4.12 50.5706 3.98667 50.864 3.72C51.184 3.42667 51.5173 2.97333 51.864 2.36L55.024 3.92C54.464 5.33333 53.7306 6.46666 52.824 7.32C51.944 8.17333 50.944 8.6 49.824 8.6Z" fill="#E3E3E3"/>
<path d="M70.258 12.08C73.5114 12.08 76.058 13.08 77.898 15.08C79.738 17.0533 80.658 19.8267 80.658 23.4C80.658 25.6667 80.2313 27.6533 79.378 29.36C78.5513 31.04 77.3513 32.3467 75.778 33.28C74.2313 34.2133 72.3914 34.68 70.258 34.68C67.0314 34.68 64.4847 33.6933 62.618 31.72C60.778 29.72 59.858 26.9333 59.858 23.36C59.858 21.0933 60.2714 19.12 61.098 17.44C61.9514 15.7333 63.1513 14.4133 64.698 13.48C66.2713 12.5467 68.1247 12.08 70.258 12.08ZM70.258 16.72C68.978 16.72 68.018 17.2667 67.378 18.36C66.738 19.4267 66.418 21.0933 66.418 23.36C66.418 25.68 66.7247 27.3733 67.338 28.44C67.978 29.5067 68.9514 30.04 70.258 30.04C71.538 30.04 72.498 29.5067 73.138 28.44C73.778 27.3467 74.098 25.6667 74.098 23.4C74.098 21.08 73.778 19.3867 73.138 18.32C72.5247 17.2533 71.5647 16.72 70.258 16.72Z" fill="#E3E3E3"/>
<path d="M111.03 6.28L110.35 10.96H100.59V17.6H109.11V22.2H100.59V29.28H111.03V34H94.0296V6.28H111.03Z" fill="#E3E3E3"/>
<path d="M133.223 4.32V34H127.623L127.303 31.52C125.81 33.6267 123.796 34.68 121.263 34.68C118.623 34.68 116.61 33.6667 115.223 31.64C113.863 29.6133 113.183 26.84 113.183 23.32C113.183 21.16 113.543 19.2267 114.263 17.52C114.983 15.8133 115.996 14.48 117.303 13.52C118.636 12.56 120.156 12.08 121.863 12.08C123.89 12.08 125.57 12.7467 126.903 14.08V3.64L133.223 4.32ZM123.223 30.04C124.69 30.04 125.916 29.24 126.903 27.64V18.48C126.396 17.8667 125.876 17.4133 125.343 17.12C124.836 16.8267 124.25 16.68 123.583 16.68C122.41 16.68 121.476 17.2267 120.783 18.32C120.09 19.4133 119.743 21.0933 119.743 23.36C119.743 25.84 120.036 27.5733 120.623 28.56C121.236 29.5467 122.103 30.04 123.223 30.04Z" fill="#E3E3E3"/>
<path d="M145.647 12.08C147.167 12.08 148.594 12.3067 149.927 12.76C151.261 13.2133 152.434 13.8533 153.447 14.68L151.127 18.24C149.394 17.1467 147.647 16.6 145.887 16.6C145.061 16.6 144.421 16.7467 143.967 17.04C143.541 17.3067 143.327 17.6933 143.327 18.2C143.327 18.6 143.421 18.9333 143.607 19.2C143.821 19.44 144.234 19.6933 144.847 19.96C145.461 20.2267 146.407 20.5467 147.687 20.92C149.901 21.56 151.541 22.4 152.607 23.44C153.701 24.4533 154.247 25.8667 154.247 27.68C154.247 29.12 153.834 30.3733 153.007 31.44C152.181 32.48 151.047 33.28 149.607 33.84C148.167 34.4 146.567 34.68 144.807 34.68C143.021 34.68 141.354 34.4 139.807 33.84C138.287 33.28 136.994 32.5067 135.927 31.52L139.007 28.08C140.794 29.4667 142.674 30.16 144.647 30.16C145.607 30.16 146.354 29.9867 146.887 29.64C147.447 29.2933 147.727 28.8 147.727 28.16C147.727 27.6533 147.621 27.2533 147.407 26.96C147.194 26.6667 146.781 26.4 146.167 26.16C145.554 25.8933 144.581 25.5733 143.247 25.2C141.141 24.5867 139.567 23.7333 138.527 22.64C137.487 21.5467 136.967 20.1867 136.967 18.56C136.967 17.3333 137.314 16.24 138.007 15.28C138.727 14.2933 139.741 13.52 141.047 12.96C142.381 12.3733 143.914 12.08 145.647 12.08Z" fill="#E3E3E3"/>
<path d="M166.703 12.08C169.957 12.08 172.503 13.08 174.343 15.08C176.183 17.0533 177.103 19.8267 177.103 23.4C177.103 25.6667 176.677 27.6533 175.823 29.36C174.997 31.04 173.797 32.3467 172.223 33.28C170.677 34.2133 168.837 34.68 166.703 34.68C163.477 34.68 160.93 33.6933 159.063 31.72C157.223 29.72 156.303 26.9333 156.303 23.36C156.303 21.0933 156.717 19.12 157.543 17.44C158.397 15.7333 159.597 14.4133 161.143 13.48C162.717 12.5467 164.57 12.08 166.703 12.08ZM166.703 16.72C165.423 16.72 164.463 17.2667 163.823 18.36C163.183 19.4267 162.863 21.0933 162.863 23.36C162.863 25.68 163.17 27.3733 163.783 28.44C164.423 29.5067 165.397 30.04 166.703 30.04C167.983 30.04 168.943 29.5067 169.583 28.44C170.223 27.3467 170.543 25.6667 170.543 23.4C170.543 21.08 170.223 19.3867 169.583 18.32C168.97 17.2533 168.01 16.72 166.703 16.72Z" fill="#E3E3E3"/>
<path d="M193.303 12.08C195.143 12.08 196.583 12.64 197.623 13.76C198.663 14.88 199.183 16.4533 199.183 18.48V34H192.863V19.56C192.863 18.4933 192.689 17.76 192.343 17.36C192.023 16.9333 191.529 16.72 190.863 16.72C189.583 16.72 188.356 17.64 187.183 19.48V34H180.863V12.76H186.383L186.823 15.28C187.729 14.2133 188.703 13.4133 189.743 12.88C190.809 12.3467 191.996 12.08 193.303 12.08Z" fill="#E3E3E3"/>
</svg>
