<svg width="243" height="28" viewBox="0 0 243 28" fill="none" xmlns="http://www.w3.org/2000/svg">
<path d="M8.89602 3.79148C7.54345 3.79552 6.24744 4.33462 5.29103 5.29103C4.33462 6.24744 3.79552 7.54345 3.79148 8.89602V19.104C3.79552 20.4565 4.33462 21.7526 5.29103 22.709C6.24744 23.6654 7.54345 24.2045 8.89602 24.2085H19.104C20.4565 24.2045 21.7526 23.6654 22.709 22.709C23.6654 21.7526 24.2045 20.4565 24.2085 19.104V8.89602C24.2045 7.54345 23.6654 6.24744 22.709 5.29103C21.7526 4.33462 20.4565 3.79552 19.104 3.79148H8.89602V3.79148ZM8.89602 1.75H19.104C23.0344 1.75 26.25 4.96562 26.25 8.89602V19.104C26.25 23.0344 23.0344 26.25 19.104 26.25H8.89602C4.96563 26.25 1.75 23.0344 1.75 19.104V8.89602C1.75 4.96562 4.96563 1.75 8.89602 1.75V1.75Z" fill="#453A3A"/>
<path d="M7.36476 8.89603C7.66762 8.89603 7.96367 8.80622 8.21548 8.63797C8.46729 8.46971 8.66356 8.23056 8.77945 7.95076C8.89535 7.67096 8.92567 7.36308 8.86659 7.06605C8.80751 6.76901 8.66167 6.49617 8.44752 6.28202C8.23337 6.06787 7.96053 5.92203 7.6635 5.86295C7.36646 5.80387 7.05858 5.83419 6.77878 5.95009C6.49898 6.06598 6.25983 6.26225 6.09158 6.51406C5.92332 6.76587 5.83351 7.06192 5.83351 7.36478C5.83308 7.56599 5.87239 7.7653 5.94919 7.95127C6.02599 8.13725 6.13876 8.30622 6.28104 8.4485C6.42332 8.59078 6.59229 8.70355 6.77827 8.78035C6.96424 8.85715 7.16356 8.89646 7.36476 8.89603V8.89603ZM14 9.9165C13.1924 9.9165 12.4028 10.156 11.7313 10.6047C11.0598 11.0534 10.5364 11.6912 10.2273 12.4373C9.91825 13.1835 9.83738 14.0045 9.99495 14.7967C10.1525 15.5888 10.5414 16.3164 11.1125 16.8875C11.6836 17.4586 12.4112 17.8475 13.2033 18.0051C13.9955 18.1626 14.8165 18.0818 15.5627 17.7727C16.3089 17.4636 16.9466 16.9402 17.3953 16.2687C17.844 15.5972 18.0835 14.8077 18.0835 14C18.0824 12.9174 17.6518 11.8794 16.8862 11.1138C16.1206 10.3483 15.0827 9.91765 14 9.9165V9.9165ZM14 7.87501C15.2114 7.87501 16.3956 8.23424 17.4029 8.90726C18.4101 9.58028 19.1952 10.5369 19.6588 11.6561C20.1223 12.7753 20.2436 14.0068 20.0073 15.1949C19.771 16.3831 19.1876 17.4744 18.331 18.331C17.4744 19.1876 16.3831 19.771 15.1949 20.0073C14.0068 20.2437 12.7753 20.1224 11.6561 19.6588C10.5369 19.1952 9.58027 18.4101 8.90725 17.4029C8.23422 16.3956 7.875 15.2114 7.875 14C7.875 12.3756 8.52031 10.8176 9.66897 9.66898C10.8176 8.52032 12.3755 7.87501 14 7.87501V7.87501Z" fill="#453A3A"/>
<rect width="28" height="28" transform="translate(43)" fill="#231C1C"/>
<path d="M67.2905 1.75H46.8434C45.7262 1.75 44.75 2.55391 44.75 3.65805V24.1505C44.75 25.2607 45.7262 26.25 46.8434 26.25H67.2845C68.4078 26.25 69.25 25.2541 69.25 24.1505V3.65805C69.2566 2.55391 68.4078 1.75 67.2905 1.75ZM52.3445 22.172H48.8346V11.2591H52.3445V22.172ZM50.7109 9.59984H50.6858C49.5625 9.59984 48.8352 8.76367 48.8352 7.71695C48.8352 6.65109 49.5816 5.83461 50.7301 5.83461C51.8785 5.83461 52.5813 6.64508 52.6064 7.71695C52.6059 8.76367 51.8785 9.59984 50.7109 9.59984ZM65.172 22.172H61.6621V16.205C61.6621 14.7755 61.1513 13.7988 59.8815 13.7988C58.9113 13.7988 58.3371 14.455 58.0817 15.0943C57.986 15.324 57.9603 15.6368 57.9603 15.9562V22.172H54.4505V11.2591H57.9603V12.7777C58.4711 12.0504 59.269 11.0037 61.1256 11.0037C63.4296 11.0037 65.1725 12.5223 65.1725 15.7965L65.172 22.172Z" fill="#453A3A"/>
<path d="M100 1.75C93.2352 1.75 87.75 7.37734 87.75 14.3117C87.75 19.8625 91.2609 24.5656 96.1281 26.2281C96.1964 26.243 96.2661 26.2503 96.3359 26.25C96.7898 26.25 96.9648 25.9164 96.9648 25.6266C96.9648 25.3258 96.9539 24.5383 96.9484 23.4883C96.5432 23.5833 96.1287 23.6328 95.7125 23.6359C93.3555 23.6359 92.8195 21.8039 92.8195 21.8039C92.2617 20.3547 91.4578 19.9664 91.4578 19.9664C90.3914 19.2172 91.4523 19.1953 91.5344 19.1953H91.5398C92.7703 19.3047 93.4156 20.4969 93.4156 20.4969C94.0281 21.5687 94.8484 21.8695 95.5812 21.8695C96.0658 21.8598 96.5429 21.748 96.9813 21.5414C97.0906 20.732 97.4078 20.1797 97.7578 19.8625C95.0398 19.5453 92.1797 18.468 92.1797 13.6555C92.1797 12.2828 92.6555 11.1617 93.4375 10.2867C93.3117 9.96953 92.8906 8.68984 93.5578 6.96172C93.6473 6.9403 93.7393 6.93111 93.8312 6.93438C94.2742 6.93438 95.275 7.10391 96.9266 8.25234C98.9333 7.69087 101.056 7.69087 103.062 8.25234C104.714 7.10391 105.715 6.93438 106.158 6.93438C106.25 6.93111 106.342 6.9403 106.431 6.96172C107.098 8.68984 106.677 9.96953 106.552 10.2867C107.334 11.1672 107.809 12.2883 107.809 13.6555C107.809 18.4789 104.944 19.5398 102.215 19.8516C102.652 20.2398 103.046 21.0055 103.046 22.1758C103.046 23.8547 103.03 25.2109 103.03 25.6211C103.03 25.9164 103.199 26.25 103.653 26.25C103.727 26.2503 103.8 26.243 103.872 26.2281C108.745 24.5656 112.25 19.857 112.25 14.3117C112.25 7.37734 106.765 1.75 100 1.75Z" fill="#453A3A"/>
<path d="M132.5 1.75L134.411 23.8005L142.987 26.25L151.586 23.7973L153.5 1.75H132.5ZM149.344 8.96875H139.281L139.5 11.7578H149.125L148.386 20.037L143 21.5731L137.603 20.0419L137.233 15.8047H139.872L140.059 17.9534L143 18.7616L145.921 17.9457L146.227 14.4375H137.094L136.405 6.2568H149.573L149.344 8.96875Z" fill="#453A3A"/>
<path d="M175.5 1.75L177.414 23.8011L185.987 26.25L194.586 23.7973L196.5 1.75H175.5ZM191.397 20.0648L186.004 21.6016L180.619 20.0572L180.25 15.8047H182.889L183.077 17.9681L186.008 18.7972L186.015 18.8125L188.939 18.0004L189.247 14.4922H183.102L182.883 11.7578H189.481L189.719 8.96875H179.656L179.438 6.28906H192.594L191.397 20.0648Z" fill="#453A3A"/>
<path d="M216.75 1.75V26.25H241.25V1.75H216.75ZM229.875 20.7812C229.875 23.1662 228.466 24.3288 226.427 24.3288C224.585 24.3288 223.516 23.3751 222.973 22.2239L224.848 21.0891C225.21 21.7306 225.484 22.2731 226.273 22.2731C226.93 22.2731 227.469 21.9773 227.469 20.8261V13.125H229.875V20.7812ZM235.308 24.2741C233.17 24.2741 231.789 23.3095 231.115 21.9773L232.992 20.8906C233.484 21.6967 234.127 22.2337 235.262 22.2337C236.215 22.2337 236.769 21.8116 236.769 21.1537C236.769 20.3645 236.199 20.0851 235.146 19.6224L234.571 19.3752C232.91 18.6687 231.808 17.7805 231.808 15.9053C231.808 14.1788 233.123 12.9177 235.179 12.9177C236.643 12.9177 237.695 13.3727 238.452 14.7049L236.656 15.8594C236.261 15.1523 235.836 14.875 235.176 14.875C234.502 14.875 234.074 15.3027 234.074 15.8594C234.074 16.5501 234.502 16.8295 235.489 17.2572L236.064 17.5038C238.021 18.3427 239.123 19.1991 239.123 21.122C239.124 23.1946 237.496 24.2741 235.308 24.2741Z" fill="#453A3A"/>
</svg>
