<svg width="34" height="35" viewBox="0 0 34 35" fill="none" xmlns="http://www.w3.org/2000/svg">
<g filter="url(#filter0_d_98_363)">
<path d="M17 1.75C10.2352 1.75 4.75 7.37734 4.75 14.3117C4.75 19.8625 8.26094 24.5656 13.1281 26.2281C13.1964 26.243 13.2661 26.2503 13.3359 26.25C13.7898 26.25 13.9648 25.9164 13.9648 25.6266C13.9648 25.3258 13.9539 24.5383 13.9484 23.4883C13.5432 23.5833 13.1287 23.6328 12.7125 23.6359C10.3555 23.6359 9.81953 21.8039 9.81953 21.8039C9.26172 20.3547 8.45781 19.9664 8.45781 19.9664C7.39141 19.2172 8.45234 19.1953 8.53437 19.1953H8.53984C9.77031 19.3047 10.4156 20.4969 10.4156 20.4969C11.0281 21.5687 11.8484 21.8695 12.5812 21.8695C13.0658 21.8598 13.5429 21.748 13.9813 21.5414C14.0906 20.732 14.4078 20.1797 14.7578 19.8625C12.0398 19.5453 9.17969 18.468 9.17969 13.6555C9.17969 12.2828 9.65547 11.1617 10.4375 10.2867C10.3117 9.96953 9.89062 8.68984 10.5578 6.96172C10.6473 6.9403 10.7393 6.93111 10.8312 6.93438C11.2742 6.93438 12.275 7.10391 13.9266 8.25234C15.9333 7.69087 18.0557 7.69087 20.0625 8.25234C21.7141 7.10391 22.7148 6.93438 23.1578 6.93438C23.2498 6.93111 23.3418 6.9403 23.4313 6.96172C24.0984 8.68984 23.6773 9.96953 23.5516 10.2867C24.3336 11.1672 24.8094 12.2883 24.8094 13.6555C24.8094 18.4789 21.9438 19.5398 19.2148 19.8516C19.6523 20.2398 20.0461 21.0055 20.0461 22.1758C20.0461 23.8547 20.0297 25.2109 20.0297 25.6211C20.0297 25.9164 20.1992 26.25 20.6531 26.25C20.7266 26.2503 20.7999 26.243 20.8719 26.2281C25.7445 24.5656 29.25 19.857 29.25 14.3117C29.25 7.37734 23.7648 1.75 17 1.75Z" fill="#453A3A"/>
</g>
<defs>
<filter id="filter0_d_98_363" x="-1" y="0" width="36" height="36" filterUnits="userSpaceOnUse" color-interpolation-filters="sRGB">
<feFlood flood-opacity="0" result="BackgroundImageFix"/>
<feColorMatrix in="SourceAlpha" type="matrix" values="0 0 0 0 0 0 0 0 0 0 0 0 0 0 0 0 0 0 127 0" result="hardAlpha"/>
<feOffset dy="4"/>
<feGaussianBlur stdDeviation="2"/>
<feComposite in2="hardAlpha" operator="out"/>
<feColorMatrix type="matrix" values="0 0 0 0 0 0 0 0 0 0 0 0 0 0 0 0 0 0 0.25 0"/>
<feBlend mode="normal" in2="BackgroundImageFix" result="effect1_dropShadow_98_363"/>
<feBlend mode="normal" in="SourceGraphic" in2="effect1_dropShadow_98_363" result="shape"/>
</filter>
</defs>
</svg>
